<svg xmlns="http://www.w3.org/2000/svg" xmlns:xlink="http://www.w3.org/1999/xlink" width="500" zoomAndPan="magnify" viewBox="0 0 375 374.999991" height="500" preserveAspectRatio="xMidYMid meet" version="1.0"><defs><g/><clipPath id="90730a9faf"><path d="M 108.136719 75.628906 L 257.386719 75.628906 L 257.386719 224.878906 L 108.136719 224.878906 Z M 108.136719 75.628906 " clip-rule="nonzero"/></clipPath><clipPath id="e5102b7666"><path d="M 108.136719 91 L 257.386719 91 L 257.386719 224.878906 L 108.136719 224.878906 Z M 108.136719 91 " clip-rule="nonzero"/></clipPath></defs><rect x="-37.5" width="450" fill="#ffffff" y="-37.499999" height="449.999989" fill-opacity="1"/><rect x="-37.5" width="450" fill="#ffffff" y="-37.499999" height="449.999989" fill-opacity="1"/><g clip-path="url(#90730a9faf)"><path fill="#0a57f2" d="M 205.804688 153.226562 L 205.804688 124.835938 L 159.792969 124.835938 L 159.792969 153.226562 C 159.792969 154.6875 158.617188 155.890625 157.128906 155.890625 L 143.976562 155.890625 C 142.515625 155.890625 141.3125 154.714844 141.3125 153.226562 L 141.3125 112.6875 C 141.3125 112.027344 141.570312 111.398438 142.058594 110.910156 L 145.839844 107.128906 C 146.296875 106.671875 146.929688 106.382812 147.617188 106.382812 L 217.949219 106.382812 C 218.609375 106.382812 219.242188 106.640625 219.726562 107.128906 L 223.507812 110.910156 C 223.96875 111.371094 224.253906 112 224.253906 112.6875 L 224.253906 153.226562 C 224.253906 154.6875 223.078125 155.890625 221.589844 155.890625 L 208.441406 155.890625 C 207.007812 155.890625 205.804688 154.6875 205.804688 153.226562 Z M 236.628906 75.644531 L 128.964844 75.644531 C 126.53125 75.644531 124.210938 76.617188 122.492188 78.335938 L 110.859375 89.96875 C 109.140625 91.6875 108.164062 94.007812 108.164062 96.441406 L 108.164062 204.136719 C 108.164062 206.570312 109.140625 208.894531 110.859375 210.613281 L 122.492188 222.242188 C 124.210938 223.960938 126.53125 224.9375 128.964844 224.9375 L 157.15625 224.9375 C 158.617188 224.9375 159.820312 223.761719 159.820312 222.273438 L 159.820312 171.820312 C 159.820312 170.359375 158.644531 169.15625 157.15625 169.15625 L 146.097656 169.15625 C 145.523438 169.15625 144.980469 169.386719 144.609375 169.785156 L 142 172.394531 C 141.601562 172.792969 141.371094 173.339844 141.371094 173.882812 L 141.371094 206.484375 L 132.832031 206.484375 L 126.644531 200.296875 L 126.644531 100.3125 L 132.832031 94.121094 L 232.847656 94.121094 L 239.039062 100.3125 L 239.039062 200.328125 L 232.847656 206.515625 L 224.3125 206.515625 L 224.3125 173.910156 C 224.3125 173.339844 224.082031 172.792969 223.679688 172.421875 L 221.074219 169.816406 C 220.671875 169.414062 220.128906 169.183594 219.585938 169.183594 L 208.527344 169.183594 C 207.0625 169.183594 205.859375 170.359375 205.859375 171.847656 L 205.859375 222.328125 C 205.859375 223.789062 207.035156 224.992188 208.527344 224.992188 L 236.714844 224.992188 C 239.152344 224.992188 241.472656 224.019531 243.191406 222.300781 L 254.824219 210.667969 C 256.542969 208.949219 257.515625 206.628906 257.515625 204.195312 L 257.515625 96.441406 C 257.515625 94.007812 256.542969 91.6875 254.824219 89.96875 L 243.191406 78.335938 C 241.414062 76.617188 239.066406 75.644531 236.628906 75.644531 Z M 173.574219 222.300781 C 173.574219 223.761719 174.746094 224.964844 176.238281 224.964844 L 189.386719 224.964844 C 190.847656 224.964844 192.050781 223.789062 192.050781 222.300781 L 192.050781 142.96875 C 192.050781 142.398438 191.824219 141.824219 191.421875 141.421875 L 188.84375 138.84375 C 188.441406 138.445312 187.867188 138.214844 187.296875 138.214844 L 178.386719 138.214844 C 177.8125 138.214844 177.238281 138.445312 176.839844 138.84375 L 174.261719 141.421875 C 173.859375 141.824219 173.628906 142.398438 173.628906 142.96875 L 173.628906 222.300781 Z M 173.574219 222.300781 " fill-opacity="1" fill-rule="nonzero"/></g><g clip-path="url(#e5102b7666)"><path fill="#0a57f2" d="M 205.804688 124.835938 L 159.792969 124.835938 L 159.792969 121.796875 L 205.832031 121.796875 L 205.832031 124.835938 Z M 157.128906 152.824219 L 143.976562 152.824219 C 142.515625 152.824219 141.3125 151.652344 141.3125 150.160156 L 141.3125 153.199219 C 141.3125 154.660156 142.488281 155.863281 143.976562 155.863281 L 157.128906 155.863281 C 158.589844 155.863281 159.792969 154.6875 159.792969 153.199219 L 159.792969 150.160156 C 159.792969 151.652344 158.589844 152.824219 157.128906 152.824219 Z M 232.792969 91.058594 L 132.804688 91.058594 L 126.617188 97.246094 L 126.617188 100.28125 L 132.804688 94.09375 L 232.820312 94.09375 L 239.007812 100.28125 L 239.007812 97.246094 Z M 157.128906 221.898438 L 128.9375 221.898438 C 126.5 221.898438 124.179688 220.925781 122.460938 219.207031 L 110.832031 207.574219 C 109.113281 205.855469 108.136719 203.535156 108.136719 201.101562 L 108.136719 204.136719 C 108.136719 206.570312 109.113281 208.894531 110.832031 210.613281 L 122.460938 222.242188 C 124.179688 223.960938 126.5 224.9375 128.9375 224.9375 L 157.128906 224.9375 C 158.589844 224.9375 159.792969 223.761719 159.792969 222.273438 L 159.792969 219.234375 C 159.792969 220.726562 158.589844 221.898438 157.128906 221.898438 Z M 189.359375 221.898438 L 176.207031 221.898438 C 174.746094 221.898438 173.542969 220.726562 173.542969 219.234375 L 173.542969 222.273438 C 173.542969 223.734375 174.71875 224.9375 176.207031 224.9375 L 189.359375 224.9375 C 190.820312 224.9375 192.023438 223.761719 192.023438 222.273438 L 192.023438 219.234375 C 192.023438 220.726562 190.847656 221.898438 189.359375 221.898438 Z M 243.132812 219.234375 C 241.414062 220.953125 239.09375 221.929688 236.660156 221.929688 L 208.46875 221.929688 C 207.007812 221.929688 205.804688 220.753906 205.804688 219.265625 L 205.804688 222.300781 C 205.804688 223.761719 206.976562 224.964844 208.46875 224.964844 L 236.660156 224.964844 C 239.09375 224.964844 241.414062 223.992188 243.132812 222.273438 L 254.765625 210.640625 C 256.484375 208.921875 257.457031 206.601562 257.457031 204.164062 L 257.457031 201.128906 C 257.457031 203.5625 256.484375 205.882812 254.765625 207.605469 Z M 208.46875 155.890625 L 221.617188 155.890625 C 223.078125 155.890625 224.28125 154.714844 224.28125 153.226562 L 224.28125 150.191406 C 224.28125 151.652344 223.109375 152.855469 221.617188 152.855469 L 208.46875 152.855469 C 207.007812 152.855469 205.804688 151.679688 205.804688 150.191406 L 205.804688 153.226562 C 205.804688 154.6875 207.007812 155.890625 208.46875 155.890625 Z M 208.46875 155.890625 " fill-opacity="1" fill-rule="nonzero"/></g><g fill="#000814" fill-opacity="1"><g transform="translate(80.615134, 282.401701)"><g><path d="M 1.59375 0 C 1.4375 0 1.304688 -0.0507812 1.203125 -0.15625 C 1.097656 -0.257812 1.046875 -0.390625 1.046875 -0.546875 L 1.046875 -7.65625 C 1.046875 -7.8125 1.097656 -7.941406 1.203125 -8.046875 C 1.304688 -8.148438 1.4375 -8.203125 1.59375 -8.203125 C 1.757812 -8.203125 1.890625 -8.148438 1.984375 -8.046875 C 2.085938 -7.941406 2.140625 -7.8125 2.140625 -7.65625 L 2.140625 -0.546875 C 2.140625 -0.390625 2.085938 -0.257812 1.984375 -0.15625 C 1.890625 -0.0507812 1.757812 0 1.59375 0 Z M 1.59375 0 "/></g></g></g><g fill="#000814" fill-opacity="1"><g transform="translate(86.43212, 282.401701)"><g><path d="M 1.578125 0 C 1.429688 0 1.304688 -0.046875 1.203125 -0.140625 C 1.097656 -0.242188 1.046875 -0.378906 1.046875 -0.546875 L 1.046875 -7.65625 C 1.046875 -7.8125 1.097656 -7.941406 1.203125 -8.046875 C 1.304688 -8.148438 1.429688 -8.203125 1.578125 -8.203125 C 1.660156 -8.203125 1.738281 -8.179688 1.8125 -8.140625 C 1.894531 -8.097656 1.957031 -8.050781 2 -8 L 6.578125 -1.90625 L 6.578125 -7.65625 C 6.578125 -7.8125 6.628906 -7.941406 6.734375 -8.046875 C 6.847656 -8.148438 6.976562 -8.203125 7.125 -8.203125 C 7.28125 -8.203125 7.410156 -8.148438 7.515625 -8.046875 C 7.617188 -7.941406 7.671875 -7.8125 7.671875 -7.65625 L 7.671875 -0.546875 C 7.671875 -0.378906 7.617188 -0.242188 7.515625 -0.140625 C 7.410156 -0.046875 7.28125 0 7.125 0 C 7.050781 0 6.972656 -0.015625 6.890625 -0.046875 C 6.804688 -0.078125 6.742188 -0.125 6.703125 -0.1875 L 2.125 -6.28125 L 2.125 -0.546875 C 2.125 -0.390625 2.070312 -0.257812 1.96875 -0.15625 C 1.875 -0.0507812 1.742188 0 1.578125 0 Z M 1.578125 0 "/></g></g></g><g fill="#000814" fill-opacity="1"><g transform="translate(97.772081, 282.401701)"><g><path d="M 6.28125 -8.203125 C 6.425781 -8.203125 6.546875 -8.15625 6.640625 -8.0625 C 6.734375 -7.96875 6.78125 -7.847656 6.78125 -7.703125 C 6.78125 -7.546875 6.734375 -7.421875 6.640625 -7.328125 C 6.546875 -7.234375 6.425781 -7.1875 6.28125 -7.1875 L 4.015625 -7.1875 L 4.015625 -0.546875 C 4.015625 -0.390625 3.960938 -0.257812 3.859375 -0.15625 C 3.753906 -0.0507812 3.625 0 3.46875 0 C 3.320312 0 3.191406 -0.0507812 3.078125 -0.15625 C 2.972656 -0.257812 2.921875 -0.390625 2.921875 -0.546875 L 2.921875 -7.1875 L 0.65625 -7.1875 C 0.507812 -7.1875 0.390625 -7.234375 0.296875 -7.328125 C 0.203125 -7.421875 0.15625 -7.546875 0.15625 -7.703125 C 0.15625 -7.847656 0.203125 -7.96875 0.296875 -8.0625 C 0.390625 -8.15625 0.507812 -8.203125 0.65625 -8.203125 Z M 6.28125 -8.203125 "/></g></g></g><g fill="#000814" fill-opacity="1"><g transform="translate(107.337556, 282.401701)"><g><path d="M 1.59375 0 C 1.4375 0 1.304688 -0.0507812 1.203125 -0.15625 C 1.097656 -0.257812 1.046875 -0.390625 1.046875 -0.546875 L 1.046875 -7.65625 C 1.046875 -7.8125 1.097656 -7.941406 1.203125 -8.046875 C 1.304688 -8.148438 1.4375 -8.203125 1.59375 -8.203125 L 6.34375 -8.203125 C 6.5 -8.203125 6.625 -8.15625 6.71875 -8.0625 C 6.820312 -7.96875 6.875 -7.84375 6.875 -7.6875 C 6.875 -7.539062 6.820312 -7.421875 6.71875 -7.328125 C 6.625 -7.234375 6.5 -7.1875 6.34375 -7.1875 L 2.140625 -7.1875 L 2.140625 -4.640625 L 5.15625 -4.640625 C 5.3125 -4.640625 5.4375 -4.59375 5.53125 -4.5 C 5.632812 -4.40625 5.6875 -4.285156 5.6875 -4.140625 C 5.6875 -3.992188 5.632812 -3.875 5.53125 -3.78125 C 5.4375 -3.6875 5.3125 -3.640625 5.15625 -3.640625 L 2.140625 -3.640625 L 2.140625 -1.015625 L 6.34375 -1.015625 C 6.5 -1.015625 6.625 -0.96875 6.71875 -0.875 C 6.820312 -0.78125 6.875 -0.660156 6.875 -0.515625 C 6.875 -0.359375 6.820312 -0.234375 6.71875 -0.140625 C 6.625 -0.046875 6.5 0 6.34375 0 Z M 1.59375 0 "/></g></g></g><g fill="#000814" fill-opacity="1"><g transform="translate(117.312524, 282.401701)"><g><path d="M 1.578125 0 C 1.429688 0 1.304688 -0.0507812 1.203125 -0.15625 C 1.097656 -0.257812 1.046875 -0.390625 1.046875 -0.546875 L 1.046875 -7.65625 C 1.046875 -7.8125 1.097656 -7.941406 1.203125 -8.046875 C 1.304688 -8.148438 1.429688 -8.203125 1.578125 -8.203125 C 1.734375 -8.203125 1.863281 -8.148438 1.96875 -8.046875 C 2.070312 -7.941406 2.125 -7.8125 2.125 -7.65625 L 2.125 -1.09375 L 5.9375 -1.09375 C 6.082031 -1.09375 6.207031 -1.039062 6.3125 -0.9375 C 6.425781 -0.832031 6.484375 -0.703125 6.484375 -0.546875 C 6.484375 -0.390625 6.425781 -0.257812 6.3125 -0.15625 C 6.207031 -0.0507812 6.082031 0 5.9375 0 Z M 1.578125 0 "/></g></g></g><g fill="#000814" fill-opacity="1"><g transform="translate(126.678494, 282.401701)"><g><path d="M 1.578125 0 C 1.429688 0 1.304688 -0.0507812 1.203125 -0.15625 C 1.097656 -0.257812 1.046875 -0.390625 1.046875 -0.546875 L 1.046875 -7.65625 C 1.046875 -7.8125 1.097656 -7.941406 1.203125 -8.046875 C 1.304688 -8.148438 1.429688 -8.203125 1.578125 -8.203125 C 1.734375 -8.203125 1.863281 -8.148438 1.96875 -8.046875 C 2.070312 -7.941406 2.125 -7.8125 2.125 -7.65625 L 2.125 -1.09375 L 5.9375 -1.09375 C 6.082031 -1.09375 6.207031 -1.039062 6.3125 -0.9375 C 6.425781 -0.832031 6.484375 -0.703125 6.484375 -0.546875 C 6.484375 -0.390625 6.425781 -0.257812 6.3125 -0.15625 C 6.207031 -0.0507812 6.082031 0 5.9375 0 Z M 1.578125 0 "/></g></g></g><g fill="#000814" fill-opacity="1"><g transform="translate(136.044463, 282.401701)"><g><path d="M 1.59375 0 C 1.4375 0 1.304688 -0.0507812 1.203125 -0.15625 C 1.097656 -0.257812 1.046875 -0.390625 1.046875 -0.546875 L 1.046875 -7.65625 C 1.046875 -7.8125 1.097656 -7.941406 1.203125 -8.046875 C 1.304688 -8.148438 1.4375 -8.203125 1.59375 -8.203125 C 1.757812 -8.203125 1.890625 -8.148438 1.984375 -8.046875 C 2.085938 -7.941406 2.140625 -7.8125 2.140625 -7.65625 L 2.140625 -0.546875 C 2.140625 -0.390625 2.085938 -0.257812 1.984375 -0.15625 C 1.890625 -0.0507812 1.757812 0 1.59375 0 Z M 1.59375 0 "/></g></g></g><g fill="#000814" fill-opacity="1"><g transform="translate(141.861449, 282.401701)"><g><path d="M 6.9375 -4.25 C 7.082031 -4.25 7.207031 -4.195312 7.3125 -4.09375 C 7.414062 -4 7.46875 -3.867188 7.46875 -3.703125 L 7.46875 -1.203125 C 7.46875 -1.023438 7.410156 -0.894531 7.296875 -0.8125 C 6.554688 -0.195312 5.695312 0.109375 4.71875 0.109375 C 3.96875 0.109375 3.285156 -0.078125 2.671875 -0.453125 C 2.054688 -0.828125 1.566406 -1.332031 1.203125 -1.96875 C 0.847656 -2.613281 0.671875 -3.328125 0.671875 -4.109375 C 0.671875 -4.878906 0.847656 -5.582031 1.203125 -6.21875 C 1.566406 -6.863281 2.054688 -7.375 2.671875 -7.75 C 3.285156 -8.125 3.96875 -8.3125 4.71875 -8.3125 C 5.25 -8.3125 5.707031 -8.238281 6.09375 -8.09375 C 6.488281 -7.957031 6.882812 -7.726562 7.28125 -7.40625 C 7.363281 -7.34375 7.421875 -7.273438 7.453125 -7.203125 C 7.484375 -7.140625 7.5 -7.0625 7.5 -6.96875 C 7.5 -6.832031 7.445312 -6.71875 7.34375 -6.625 C 7.238281 -6.53125 7.117188 -6.484375 6.984375 -6.484375 C 6.859375 -6.484375 6.738281 -6.53125 6.625 -6.625 C 6.332031 -6.875 6.050781 -7.050781 5.78125 -7.15625 C 5.507812 -7.257812 5.15625 -7.3125 4.71875 -7.3125 C 4.175781 -7.3125 3.675781 -7.164062 3.21875 -6.875 C 2.757812 -6.59375 2.394531 -6.207031 2.125 -5.71875 C 1.851562 -5.226562 1.71875 -4.691406 1.71875 -4.109375 C 1.71875 -3.515625 1.851562 -2.972656 2.125 -2.484375 C 2.394531 -1.992188 2.757812 -1.601562 3.21875 -1.3125 C 3.675781 -1.03125 4.175781 -0.890625 4.71875 -0.890625 C 5.3125 -0.890625 5.878906 -1.066406 6.421875 -1.421875 L 6.421875 -3.28125 L 4.96875 -3.28125 C 4.800781 -3.28125 4.664062 -3.328125 4.5625 -3.421875 C 4.46875 -3.515625 4.421875 -3.628906 4.421875 -3.765625 C 4.421875 -3.910156 4.46875 -4.023438 4.5625 -4.109375 C 4.664062 -4.203125 4.800781 -4.25 4.96875 -4.25 Z M 6.9375 -4.25 "/></g></g></g><g fill="#000814" fill-opacity="1"><g transform="translate(152.644919, 282.401701)"><g><path d="M 1.59375 0 C 1.4375 0 1.304688 -0.0507812 1.203125 -0.15625 C 1.097656 -0.257812 1.046875 -0.390625 1.046875 -0.546875 L 1.046875 -7.65625 C 1.046875 -7.8125 1.097656 -7.941406 1.203125 -8.046875 C 1.304688 -8.148438 1.4375 -8.203125 1.59375 -8.203125 L 6.34375 -8.203125 C 6.5 -8.203125 6.625 -8.15625 6.71875 -8.0625 C 6.820312 -7.96875 6.875 -7.84375 6.875 -7.6875 C 6.875 -7.539062 6.820312 -7.421875 6.71875 -7.328125 C 6.625 -7.234375 6.5 -7.1875 6.34375 -7.1875 L 2.140625 -7.1875 L 2.140625 -4.640625 L 5.15625 -4.640625 C 5.3125 -4.640625 5.4375 -4.59375 5.53125 -4.5 C 5.632812 -4.40625 5.6875 -4.285156 5.6875 -4.140625 C 5.6875 -3.992188 5.632812 -3.875 5.53125 -3.78125 C 5.4375 -3.6875 5.3125 -3.640625 5.15625 -3.640625 L 2.140625 -3.640625 L 2.140625 -1.015625 L 6.34375 -1.015625 C 6.5 -1.015625 6.625 -0.96875 6.71875 -0.875 C 6.820312 -0.78125 6.875 -0.660156 6.875 -0.515625 C 6.875 -0.359375 6.820312 -0.234375 6.71875 -0.140625 C 6.625 -0.046875 6.5 0 6.34375 0 Z M 1.59375 0 "/></g></g></g><g fill="#000814" fill-opacity="1"><g transform="translate(162.619886, 282.401701)"><g><path d="M 1.578125 0 C 1.429688 0 1.304688 -0.046875 1.203125 -0.140625 C 1.097656 -0.242188 1.046875 -0.378906 1.046875 -0.546875 L 1.046875 -7.65625 C 1.046875 -7.8125 1.097656 -7.941406 1.203125 -8.046875 C 1.304688 -8.148438 1.429688 -8.203125 1.578125 -8.203125 C 1.660156 -8.203125 1.738281 -8.179688 1.8125 -8.140625 C 1.894531 -8.097656 1.957031 -8.050781 2 -8 L 6.578125 -1.90625 L 6.578125 -7.65625 C 6.578125 -7.8125 6.628906 -7.941406 6.734375 -8.046875 C 6.847656 -8.148438 6.976562 -8.203125 7.125 -8.203125 C 7.28125 -8.203125 7.410156 -8.148438 7.515625 -8.046875 C 7.617188 -7.941406 7.671875 -7.8125 7.671875 -7.65625 L 7.671875 -0.546875 C 7.671875 -0.378906 7.617188 -0.242188 7.515625 -0.140625 C 7.410156 -0.046875 7.28125 0 7.125 0 C 7.050781 0 6.972656 -0.015625 6.890625 -0.046875 C 6.804688 -0.078125 6.742188 -0.125 6.703125 -0.1875 L 2.125 -6.28125 L 2.125 -0.546875 C 2.125 -0.390625 2.070312 -0.257812 1.96875 -0.15625 C 1.875 -0.0507812 1.742188 0 1.578125 0 Z M 1.578125 0 "/></g></g></g><g fill="#000814" fill-opacity="1"><g transform="translate(173.959847, 282.401701)"><g><path d="M 4.71875 0.109375 C 3.96875 0.109375 3.285156 -0.078125 2.671875 -0.453125 C 2.054688 -0.828125 1.566406 -1.332031 1.203125 -1.96875 C 0.847656 -2.613281 0.671875 -3.328125 0.671875 -4.109375 C 0.671875 -4.878906 0.847656 -5.582031 1.203125 -6.21875 C 1.566406 -6.863281 2.054688 -7.375 2.671875 -7.75 C 3.285156 -8.125 3.96875 -8.3125 4.71875 -8.3125 C 5.25 -8.3125 5.707031 -8.238281 6.09375 -8.09375 C 6.488281 -7.957031 6.882812 -7.726562 7.28125 -7.40625 C 7.363281 -7.34375 7.421875 -7.273438 7.453125 -7.203125 C 7.484375 -7.140625 7.5 -7.0625 7.5 -6.96875 C 7.5 -6.832031 7.445312 -6.71875 7.34375 -6.625 C 7.238281 -6.53125 7.125 -6.484375 7 -6.484375 C 6.863281 -6.484375 6.738281 -6.53125 6.625 -6.625 C 6.332031 -6.875 6.050781 -7.050781 5.78125 -7.15625 C 5.507812 -7.257812 5.15625 -7.3125 4.71875 -7.3125 C 4.175781 -7.3125 3.675781 -7.164062 3.21875 -6.875 C 2.757812 -6.59375 2.394531 -6.207031 2.125 -5.71875 C 1.851562 -5.226562 1.71875 -4.691406 1.71875 -4.109375 C 1.71875 -3.515625 1.851562 -2.972656 2.125 -2.484375 C 2.394531 -1.992188 2.757812 -1.601562 3.21875 -1.3125 C 3.675781 -1.03125 4.175781 -0.890625 4.71875 -0.890625 C 5.394531 -0.890625 6.039062 -1.117188 6.65625 -1.578125 C 6.769531 -1.671875 6.882812 -1.71875 7 -1.71875 C 7.132812 -1.71875 7.242188 -1.664062 7.328125 -1.5625 C 7.421875 -1.46875 7.46875 -1.347656 7.46875 -1.203125 C 7.46875 -1.046875 7.410156 -0.914062 7.296875 -0.8125 C 6.535156 -0.195312 5.675781 0.109375 4.71875 0.109375 Z M 4.71875 0.109375 "/></g></g></g><g fill="#000814" fill-opacity="1"><g transform="translate(184.743317, 282.401701)"><g><path d="M 1.59375 0 C 1.4375 0 1.304688 -0.0507812 1.203125 -0.15625 C 1.097656 -0.257812 1.046875 -0.390625 1.046875 -0.546875 L 1.046875 -7.65625 C 1.046875 -7.8125 1.097656 -7.941406 1.203125 -8.046875 C 1.304688 -8.148438 1.4375 -8.203125 1.59375 -8.203125 L 6.34375 -8.203125 C 6.5 -8.203125 6.625 -8.15625 6.71875 -8.0625 C 6.820312 -7.96875 6.875 -7.84375 6.875 -7.6875 C 6.875 -7.539062 6.820312 -7.421875 6.71875 -7.328125 C 6.625 -7.234375 6.5 -7.1875 6.34375 -7.1875 L 2.140625 -7.1875 L 2.140625 -4.640625 L 5.15625 -4.640625 C 5.3125 -4.640625 5.4375 -4.59375 5.53125 -4.5 C 5.632812 -4.40625 5.6875 -4.285156 5.6875 -4.140625 C 5.6875 -3.992188 5.632812 -3.875 5.53125 -3.78125 C 5.4375 -3.6875 5.3125 -3.640625 5.15625 -3.640625 L 2.140625 -3.640625 L 2.140625 -1.015625 L 6.34375 -1.015625 C 6.5 -1.015625 6.625 -0.96875 6.71875 -0.875 C 6.820312 -0.78125 6.875 -0.660156 6.875 -0.515625 C 6.875 -0.359375 6.820312 -0.234375 6.71875 -0.140625 C 6.625 -0.046875 6.5 0 6.34375 0 Z M 1.59375 0 "/></g></g></g><g fill="#000814" fill-opacity="1"><g transform="translate(194.718284, 282.401701)"><g/></g></g><g fill="#000814" fill-opacity="1"><g transform="translate(200.419776, 282.401701)"><g><path d="M 6.375 -0.84375 C 6.445312 -0.726562 6.484375 -0.613281 6.484375 -0.5 C 6.484375 -0.351562 6.429688 -0.234375 6.328125 -0.140625 C 6.234375 -0.046875 6.109375 0 5.953125 0 C 5.753906 0 5.597656 -0.0859375 5.484375 -0.265625 L 3.671875 -3.15625 L 2.140625 -3.15625 L 2.140625 -0.546875 C 2.140625 -0.390625 2.085938 -0.257812 1.984375 -0.15625 C 1.890625 -0.0507812 1.757812 0 1.59375 0 C 1.4375 0 1.304688 -0.0507812 1.203125 -0.15625 C 1.097656 -0.257812 1.046875 -0.390625 1.046875 -0.546875 L 1.046875 -7.65625 C 1.046875 -7.8125 1.097656 -7.941406 1.203125 -8.046875 C 1.304688 -8.148438 1.4375 -8.203125 1.59375 -8.203125 L 3.484375 -8.203125 C 4.003906 -8.203125 4.46875 -8.09375 4.875 -7.875 C 5.28125 -7.65625 5.597656 -7.347656 5.828125 -6.953125 C 6.054688 -6.566406 6.171875 -6.125 6.171875 -5.625 C 6.171875 -5.125 6.046875 -4.679688 5.796875 -4.296875 C 5.546875 -3.910156 5.203125 -3.617188 4.765625 -3.421875 Z M 3.484375 -4.171875 C 3.960938 -4.171875 4.351562 -4.304688 4.65625 -4.578125 C 4.96875 -4.847656 5.125 -5.195312 5.125 -5.625 C 5.125 -6.082031 4.96875 -6.457031 4.65625 -6.75 C 4.351562 -7.039062 3.960938 -7.1875 3.484375 -7.1875 L 2.140625 -7.1875 L 2.140625 -4.171875 Z M 3.484375 -4.171875 "/></g></g></g><g fill="#000814" fill-opacity="1"><g transform="translate(209.680746, 282.401701)"><g><path d="M 1.59375 0 C 1.4375 0 1.304688 -0.0507812 1.203125 -0.15625 C 1.097656 -0.257812 1.046875 -0.390625 1.046875 -0.546875 L 1.046875 -7.65625 C 1.046875 -7.8125 1.097656 -7.941406 1.203125 -8.046875 C 1.304688 -8.148438 1.4375 -8.203125 1.59375 -8.203125 L 6.34375 -8.203125 C 6.5 -8.203125 6.625 -8.15625 6.71875 -8.0625 C 6.820312 -7.96875 6.875 -7.84375 6.875 -7.6875 C 6.875 -7.539062 6.820312 -7.421875 6.71875 -7.328125 C 6.625 -7.234375 6.5 -7.1875 6.34375 -7.1875 L 2.140625 -7.1875 L 2.140625 -4.640625 L 5.15625 -4.640625 C 5.3125 -4.640625 5.4375 -4.59375 5.53125 -4.5 C 5.632812 -4.40625 5.6875 -4.285156 5.6875 -4.140625 C 5.6875 -3.992188 5.632812 -3.875 5.53125 -3.78125 C 5.4375 -3.6875 5.3125 -3.640625 5.15625 -3.640625 L 2.140625 -3.640625 L 2.140625 -1.015625 L 6.34375 -1.015625 C 6.5 -1.015625 6.625 -0.96875 6.71875 -0.875 C 6.820312 -0.78125 6.875 -0.660156 6.875 -0.515625 C 6.875 -0.359375 6.820312 -0.234375 6.71875 -0.140625 C 6.625 -0.046875 6.5 0 6.34375 0 Z M 1.59375 0 "/></g></g></g><g fill="#000814" fill-opacity="1"><g transform="translate(219.655714, 282.401701)"><g><path d="M 1.59375 0 C 1.4375 0 1.304688 -0.0507812 1.203125 -0.15625 C 1.097656 -0.257812 1.046875 -0.390625 1.046875 -0.546875 L 1.046875 -7.65625 C 1.046875 -7.8125 1.097656 -7.941406 1.203125 -8.046875 C 1.304688 -8.148438 1.4375 -8.203125 1.59375 -8.203125 L 3.5 -8.203125 C 4.289062 -8.203125 4.992188 -8.023438 5.609375 -7.671875 C 6.222656 -7.328125 6.703125 -6.84375 7.046875 -6.21875 C 7.390625 -5.601562 7.5625 -4.898438 7.5625 -4.109375 C 7.5625 -3.316406 7.390625 -2.609375 7.046875 -1.984375 C 6.703125 -1.359375 6.222656 -0.867188 5.609375 -0.515625 C 4.992188 -0.171875 4.289062 0 3.5 0 Z M 3.5 -0.96875 C 4.082031 -0.96875 4.601562 -1.097656 5.0625 -1.359375 C 5.519531 -1.628906 5.875 -2.003906 6.125 -2.484375 C 6.382812 -2.960938 6.515625 -3.503906 6.515625 -4.109375 C 6.515625 -4.710938 6.382812 -5.25 6.125 -5.71875 C 5.875 -6.195312 5.519531 -6.566406 5.0625 -6.828125 C 4.601562 -7.097656 4.082031 -7.234375 3.5 -7.234375 L 2.140625 -7.234375 L 2.140625 -0.96875 Z M 3.5 -0.96875 "/></g></g></g><g fill="#000814" fill-opacity="1"><g transform="translate(230.502183, 282.401701)"><g><path d="M 1.59375 0 C 1.4375 0 1.304688 -0.0507812 1.203125 -0.15625 C 1.097656 -0.257812 1.046875 -0.390625 1.046875 -0.546875 L 1.046875 -7.65625 C 1.046875 -7.8125 1.097656 -7.941406 1.203125 -8.046875 C 1.304688 -8.148438 1.4375 -8.203125 1.59375 -8.203125 L 6.34375 -8.203125 C 6.5 -8.203125 6.625 -8.15625 6.71875 -8.0625 C 6.820312 -7.96875 6.875 -7.84375 6.875 -7.6875 C 6.875 -7.539062 6.820312 -7.421875 6.71875 -7.328125 C 6.625 -7.234375 6.5 -7.1875 6.34375 -7.1875 L 2.140625 -7.1875 L 2.140625 -4.640625 L 5.15625 -4.640625 C 5.3125 -4.640625 5.4375 -4.59375 5.53125 -4.5 C 5.632812 -4.40625 5.6875 -4.285156 5.6875 -4.140625 C 5.6875 -3.992188 5.632812 -3.875 5.53125 -3.78125 C 5.4375 -3.6875 5.3125 -3.640625 5.15625 -3.640625 L 2.140625 -3.640625 L 2.140625 -1.015625 L 6.34375 -1.015625 C 6.5 -1.015625 6.625 -0.96875 6.71875 -0.875 C 6.820312 -0.78125 6.875 -0.660156 6.875 -0.515625 C 6.875 -0.359375 6.820312 -0.234375 6.71875 -0.140625 C 6.625 -0.046875 6.5 0 6.34375 0 Z M 1.59375 0 "/></g></g></g><g fill="#000814" fill-opacity="1"><g transform="translate(240.47715, 282.401701)"><g><path d="M 0.9375 0 C 0.78125 0 0.648438 -0.0507812 0.546875 -0.15625 C 0.441406 -0.257812 0.390625 -0.390625 0.390625 -0.546875 L 0.390625 -7.65625 C 0.390625 -7.8125 0.441406 -7.941406 0.546875 -8.046875 C 0.648438 -8.148438 0.78125 -8.203125 0.9375 -8.203125 L 5.6875 -8.203125 C 5.84375 -8.203125 5.96875 -8.15625 6.0625 -8.0625 C 6.164062 -7.96875 6.21875 -7.84375 6.21875 -7.6875 C 6.21875 -7.539062 6.164062 -7.421875 6.0625 -7.328125 C 5.96875 -7.234375 5.84375 -7.1875 5.6875 -7.1875 L 1.484375 -7.1875 L 1.484375 -4.640625 L 4.5 -4.640625 C 4.644531 -4.640625 4.769531 -4.59375 4.875 -4.5 C 4.976562 -4.40625 5.03125 -4.285156 5.03125 -4.140625 C 5.03125 -3.992188 4.976562 -3.875 4.875 -3.78125 C 4.769531 -3.6875 4.644531 -3.640625 4.5 -3.640625 L 1.484375 -3.640625 L 1.484375 -0.546875 C 1.484375 -0.390625 1.429688 -0.257812 1.328125 -0.15625 C 1.222656 -0.0507812 1.09375 0 0.9375 0 Z M 0.9375 0 "/></g></g></g><g fill="#000814" fill-opacity="1"><g transform="translate(249.664627, 282.401701)"><g><path d="M 1.59375 0 C 1.4375 0 1.304688 -0.0507812 1.203125 -0.15625 C 1.097656 -0.257812 1.046875 -0.390625 1.046875 -0.546875 L 1.046875 -7.65625 C 1.046875 -7.8125 1.097656 -7.941406 1.203125 -8.046875 C 1.304688 -8.148438 1.4375 -8.203125 1.59375 -8.203125 C 1.757812 -8.203125 1.890625 -8.148438 1.984375 -8.046875 C 2.085938 -7.941406 2.140625 -7.8125 2.140625 -7.65625 L 2.140625 -0.546875 C 2.140625 -0.390625 2.085938 -0.257812 1.984375 -0.15625 C 1.890625 -0.0507812 1.757812 0 1.59375 0 Z M 1.59375 0 "/></g></g></g><g fill="#000814" fill-opacity="1"><g transform="translate(255.481612, 282.401701)"><g><path d="M 1.578125 0 C 1.429688 0 1.304688 -0.046875 1.203125 -0.140625 C 1.097656 -0.242188 1.046875 -0.378906 1.046875 -0.546875 L 1.046875 -7.65625 C 1.046875 -7.8125 1.097656 -7.941406 1.203125 -8.046875 C 1.304688 -8.148438 1.429688 -8.203125 1.578125 -8.203125 C 1.660156 -8.203125 1.738281 -8.179688 1.8125 -8.140625 C 1.894531 -8.097656 1.957031 -8.050781 2 -8 L 6.578125 -1.90625 L 6.578125 -7.65625 C 6.578125 -7.8125 6.628906 -7.941406 6.734375 -8.046875 C 6.847656 -8.148438 6.976562 -8.203125 7.125 -8.203125 C 7.28125 -8.203125 7.410156 -8.148438 7.515625 -8.046875 C 7.617188 -7.941406 7.671875 -7.8125 7.671875 -7.65625 L 7.671875 -0.546875 C 7.671875 -0.378906 7.617188 -0.242188 7.515625 -0.140625 C 7.410156 -0.046875 7.28125 0 7.125 0 C 7.050781 0 6.972656 -0.015625 6.890625 -0.046875 C 6.804688 -0.078125 6.742188 -0.125 6.703125 -0.1875 L 2.125 -6.28125 L 2.125 -0.546875 C 2.125 -0.390625 2.070312 -0.257812 1.96875 -0.15625 C 1.875 -0.0507812 1.742188 0 1.578125 0 Z M 1.578125 0 "/></g></g></g><g fill="#000814" fill-opacity="1"><g transform="translate(266.821573, 282.401701)"><g><path d="M 1.59375 0 C 1.4375 0 1.304688 -0.0507812 1.203125 -0.15625 C 1.097656 -0.257812 1.046875 -0.390625 1.046875 -0.546875 L 1.046875 -7.65625 C 1.046875 -7.8125 1.097656 -7.941406 1.203125 -8.046875 C 1.304688 -8.148438 1.4375 -8.203125 1.59375 -8.203125 L 6.34375 -8.203125 C 6.5 -8.203125 6.625 -8.15625 6.71875 -8.0625 C 6.820312 -7.96875 6.875 -7.84375 6.875 -7.6875 C 6.875 -7.539062 6.820312 -7.421875 6.71875 -7.328125 C 6.625 -7.234375 6.5 -7.1875 6.34375 -7.1875 L 2.140625 -7.1875 L 2.140625 -4.640625 L 5.15625 -4.640625 C 5.3125 -4.640625 5.4375 -4.59375 5.53125 -4.5 C 5.632812 -4.40625 5.6875 -4.285156 5.6875 -4.140625 C 5.6875 -3.992188 5.632812 -3.875 5.53125 -3.78125 C 5.4375 -3.6875 5.3125 -3.640625 5.15625 -3.640625 L 2.140625 -3.640625 L 2.140625 -1.015625 L 6.34375 -1.015625 C 6.5 -1.015625 6.625 -0.96875 6.71875 -0.875 C 6.820312 -0.78125 6.875 -0.660156 6.875 -0.515625 C 6.875 -0.359375 6.820312 -0.234375 6.71875 -0.140625 C 6.625 -0.046875 6.5 0 6.34375 0 Z M 1.59375 0 "/></g></g></g><g fill="#000814" fill-opacity="1"><g transform="translate(276.796541, 282.401701)"><g><path d="M 1.59375 0 C 1.4375 0 1.304688 -0.0507812 1.203125 -0.15625 C 1.097656 -0.257812 1.046875 -0.390625 1.046875 -0.546875 L 1.046875 -7.65625 C 1.046875 -7.8125 1.097656 -7.941406 1.203125 -8.046875 C 1.304688 -8.148438 1.4375 -8.203125 1.59375 -8.203125 L 3.5 -8.203125 C 4.289062 -8.203125 4.992188 -8.023438 5.609375 -7.671875 C 6.222656 -7.328125 6.703125 -6.84375 7.046875 -6.21875 C 7.390625 -5.601562 7.5625 -4.898438 7.5625 -4.109375 C 7.5625 -3.316406 7.390625 -2.609375 7.046875 -1.984375 C 6.703125 -1.359375 6.222656 -0.867188 5.609375 -0.515625 C 4.992188 -0.171875 4.289062 0 3.5 0 Z M 3.5 -0.96875 C 4.082031 -0.96875 4.601562 -1.097656 5.0625 -1.359375 C 5.519531 -1.628906 5.875 -2.003906 6.125 -2.484375 C 6.382812 -2.960938 6.515625 -3.503906 6.515625 -4.109375 C 6.515625 -4.710938 6.382812 -5.25 6.125 -5.71875 C 5.875 -6.195312 5.519531 -6.566406 5.0625 -6.828125 C 4.601562 -7.097656 4.082031 -7.234375 3.5 -7.234375 L 2.140625 -7.234375 L 2.140625 -0.96875 Z M 3.5 -0.96875 "/></g></g></g><g fill="#000000" fill-opacity="1"><g transform="translate(56.395623, 259.279386)"><g><path d="M 4.5625 -18.8125 C 4.65625 -18.8125 4.785156 -18.765625 4.953125 -18.671875 C 5.117188 -18.578125 5.203125 -18.359375 5.203125 -18.015625 L 5.203125 -0.78125 C 5.203125 -0.425781 5.117188 -0.203125 4.953125 -0.109375 C 4.785156 -0.0234375 4.65625 0.015625 4.5625 0.015625 L 2.46875 0.015625 C 2.375 0.015625 2.242188 -0.0234375 2.078125 -0.109375 C 1.910156 -0.203125 1.828125 -0.425781 1.828125 -0.78125 L 1.828125 -18.015625 C 1.828125 -18.359375 1.910156 -18.578125 2.078125 -18.671875 C 2.242188 -18.765625 2.375 -18.8125 2.46875 -18.8125 Z M 4.5625 -18.8125 "/></g></g></g><g fill="#000000" fill-opacity="1"><g transform="translate(68.676991, 259.279386)"><g><path d="M 17.984375 -18.8125 C 18.078125 -18.8125 18.207031 -18.769531 18.375 -18.6875 C 18.539062 -18.601562 18.625 -18.378906 18.625 -18.015625 L 18.625 -2.921875 C 18.625 -1.804688 18.460938 -1.046875 18.140625 -0.640625 C 17.828125 -0.203125 17.335938 0.015625 16.671875 0.015625 L 15 0.015625 C 14.695312 0.015625 14.4375 -0.00390625 14.21875 -0.046875 C 14.113281 -0.078125 14.007812 -0.109375 13.90625 -0.140625 C 13.800781 -0.179688 13.703125 -0.234375 13.609375 -0.296875 C 13.421875 -0.398438 13.253906 -0.566406 13.109375 -0.796875 C 13.023438 -0.898438 12.9375 -1.019531 12.84375 -1.15625 C 12.757812 -1.300781 12.671875 -1.460938 12.578125 -1.640625 L 5.34375 -14.46875 C 5.320312 -14.5 5.300781 -14.519531 5.28125 -14.53125 C 5.269531 -14.539062 5.265625 -14.546875 5.265625 -14.546875 L 5.15625 -14.546875 C 5.15625 -14.546875 5.15625 -14.539062 5.15625 -14.53125 C 5.15625 -14.519531 5.15625 -14.507812 5.15625 -14.5 L 5.15625 -0.78125 C 5.15625 -0.425781 5.078125 -0.203125 4.921875 -0.109375 C 4.765625 -0.0234375 4.628906 0.015625 4.515625 0.015625 L 2.484375 0.015625 C 2.378906 0.015625 2.242188 -0.0234375 2.078125 -0.109375 C 1.910156 -0.203125 1.828125 -0.425781 1.828125 -0.78125 L 1.828125 -15.859375 C 1.828125 -16.972656 1.988281 -17.742188 2.3125 -18.171875 C 2.644531 -18.597656 3.140625 -18.8125 3.796875 -18.8125 L 5.5 -18.8125 C 5.65625 -18.8125 5.800781 -18.804688 5.9375 -18.796875 C 6.070312 -18.785156 6.191406 -18.773438 6.296875 -18.765625 C 6.546875 -18.722656 6.757812 -18.628906 6.9375 -18.484375 C 7.09375 -18.378906 7.253906 -18.207031 7.421875 -17.96875 C 7.492188 -17.863281 7.570312 -17.738281 7.65625 -17.59375 C 7.738281 -17.457031 7.828125 -17.304688 7.921875 -17.140625 L 15.140625 -4.3125 C 15.148438 -4.269531 15.171875 -4.25 15.203125 -4.25 L 15.3125 -4.25 C 15.3125 -4.257812 15.3125 -4.265625 15.3125 -4.265625 C 15.3125 -4.265625 15.3125 -4.273438 15.3125 -4.296875 L 15.3125 -18.015625 C 15.3125 -18.378906 15.390625 -18.601562 15.546875 -18.6875 C 15.710938 -18.769531 15.847656 -18.8125 15.953125 -18.8125 Z M 17.984375 -18.8125 "/></g></g></g><g fill="#000000" fill-opacity="1"><g transform="translate(94.379195, 259.279386)"><g><path d="M 17.984375 -18.8125 C 18.078125 -18.8125 18.207031 -18.769531 18.375 -18.6875 C 18.539062 -18.601562 18.625 -18.378906 18.625 -18.015625 L 18.625 -2.921875 C 18.625 -1.804688 18.460938 -1.046875 18.140625 -0.640625 C 17.828125 -0.203125 17.335938 0.015625 16.671875 0.015625 L 15 0.015625 C 14.695312 0.015625 14.4375 -0.00390625 14.21875 -0.046875 C 14.113281 -0.078125 14.007812 -0.109375 13.90625 -0.140625 C 13.800781 -0.179688 13.703125 -0.234375 13.609375 -0.296875 C 13.421875 -0.398438 13.253906 -0.566406 13.109375 -0.796875 C 13.023438 -0.898438 12.9375 -1.019531 12.84375 -1.15625 C 12.757812 -1.300781 12.671875 -1.460938 12.578125 -1.640625 L 5.34375 -14.46875 C 5.320312 -14.5 5.300781 -14.519531 5.28125 -14.53125 C 5.269531 -14.539062 5.265625 -14.546875 5.265625 -14.546875 L 5.15625 -14.546875 C 5.15625 -14.546875 5.15625 -14.539062 5.15625 -14.53125 C 5.15625 -14.519531 5.15625 -14.507812 5.15625 -14.5 L 5.15625 -0.78125 C 5.15625 -0.425781 5.078125 -0.203125 4.921875 -0.109375 C 4.765625 -0.0234375 4.628906 0.015625 4.515625 0.015625 L 2.484375 0.015625 C 2.378906 0.015625 2.242188 -0.0234375 2.078125 -0.109375 C 1.910156 -0.203125 1.828125 -0.425781 1.828125 -0.78125 L 1.828125 -15.859375 C 1.828125 -16.972656 1.988281 -17.742188 2.3125 -18.171875 C 2.644531 -18.597656 3.140625 -18.8125 3.796875 -18.8125 L 5.5 -18.8125 C 5.65625 -18.8125 5.800781 -18.804688 5.9375 -18.796875 C 6.070312 -18.785156 6.191406 -18.773438 6.296875 -18.765625 C 6.546875 -18.722656 6.757812 -18.628906 6.9375 -18.484375 C 7.09375 -18.378906 7.253906 -18.207031 7.421875 -17.96875 C 7.492188 -17.863281 7.570312 -17.738281 7.65625 -17.59375 C 7.738281 -17.457031 7.828125 -17.304688 7.921875 -17.140625 L 15.140625 -4.3125 C 15.148438 -4.269531 15.171875 -4.25 15.203125 -4.25 L 15.3125 -4.25 C 15.3125 -4.257812 15.3125 -4.265625 15.3125 -4.265625 C 15.3125 -4.265625 15.3125 -4.273438 15.3125 -4.296875 L 15.3125 -18.015625 C 15.3125 -18.378906 15.390625 -18.601562 15.546875 -18.6875 C 15.710938 -18.769531 15.847656 -18.8125 15.953125 -18.8125 Z M 17.984375 -18.8125 "/></g></g></g><g fill="#000000" fill-opacity="1"><g transform="translate(120.081399, 259.279386)"><g><path d="M 17.375 -17.140625 C 17.8125 -16.597656 18.140625 -15.851562 18.359375 -14.90625 C 18.441406 -14.46875 18.507812 -13.972656 18.5625 -13.421875 C 18.625 -12.867188 18.65625 -12.285156 18.65625 -11.671875 L 18.65625 -7.140625 C 18.65625 -6.503906 18.625 -5.910156 18.5625 -5.359375 C 18.507812 -4.816406 18.441406 -4.320312 18.359375 -3.875 C 18.140625 -2.945312 17.8125 -2.195312 17.375 -1.625 C 16.90625 -1.03125 16.3125 -0.609375 15.59375 -0.359375 C 14.863281 -0.109375 14.003906 0.015625 13.015625 0.015625 L 7.4375 0.015625 C 6.4375 0.015625 5.585938 -0.109375 4.890625 -0.359375 C 4.171875 -0.609375 3.578125 -1.035156 3.109375 -1.640625 C 2.648438 -2.234375 2.320312 -2.976562 2.125 -3.875 C 2.019531 -4.320312 1.941406 -4.816406 1.890625 -5.359375 C 1.847656 -5.910156 1.828125 -6.503906 1.828125 -7.140625 L 1.828125 -11.671875 C 1.828125 -12.972656 1.925781 -14.050781 2.125 -14.90625 C 2.320312 -15.800781 2.648438 -16.546875 3.109375 -17.140625 C 3.578125 -17.722656 4.171875 -18.148438 4.890625 -18.421875 C 5.617188 -18.679688 6.46875 -18.8125 7.4375 -18.8125 L 13.015625 -18.8125 C 14.003906 -18.8125 14.863281 -18.679688 15.59375 -18.421875 C 16.3125 -18.148438 16.90625 -17.722656 17.375 -17.140625 Z M 15.25 -12.046875 C 15.25 -12.390625 15.238281 -12.703125 15.21875 -12.984375 C 15.207031 -13.265625 15.179688 -13.519531 15.140625 -13.75 C 15.078125 -14.164062 14.945312 -14.503906 14.75 -14.765625 C 14.59375 -14.984375 14.363281 -15.148438 14.0625 -15.265625 C 13.90625 -15.316406 13.734375 -15.359375 13.546875 -15.390625 C 13.359375 -15.421875 13.140625 -15.4375 12.890625 -15.4375 L 7.5625 -15.4375 C 7.3125 -15.4375 7.09375 -15.421875 6.90625 -15.390625 C 6.71875 -15.359375 6.546875 -15.316406 6.390625 -15.265625 C 6.085938 -15.148438 5.859375 -14.984375 5.703125 -14.765625 C 5.609375 -14.648438 5.53125 -14.503906 5.46875 -14.328125 C 5.414062 -14.148438 5.363281 -13.957031 5.3125 -13.75 C 5.28125 -13.519531 5.253906 -13.265625 5.234375 -12.984375 C 5.210938 -12.703125 5.203125 -12.390625 5.203125 -12.046875 L 5.203125 -6.734375 C 5.203125 -6.398438 5.210938 -6.09375 5.234375 -5.8125 C 5.253906 -5.53125 5.28125 -5.273438 5.3125 -5.046875 C 5.363281 -4.847656 5.414062 -4.660156 5.46875 -4.484375 C 5.53125 -4.304688 5.609375 -4.160156 5.703125 -4.046875 C 5.859375 -3.796875 6.085938 -3.625 6.390625 -3.53125 C 6.660156 -3.425781 7.050781 -3.375 7.5625 -3.375 L 12.890625 -3.375 C 13.398438 -3.375 13.789062 -3.425781 14.0625 -3.53125 C 14.363281 -3.625 14.59375 -3.796875 14.75 -4.046875 C 14.925781 -4.273438 15.054688 -4.609375 15.140625 -5.046875 C 15.179688 -5.273438 15.207031 -5.53125 15.21875 -5.8125 C 15.238281 -6.09375 15.25 -6.398438 15.25 -6.734375 Z M 15.25 -12.046875 "/></g></g></g><g fill="#000000" fill-opacity="1"><g transform="translate(145.806435, 259.279386)"><g><path d="M 12.859375 -11.234375 C 14.046875 -11.234375 14.945312 -10.8125 15.5625 -9.96875 C 16.15625 -9.15625 16.453125 -8 16.453125 -6.5 L 16.453125 -4.5 C 16.453125 -3.1875 16.164062 -2.113281 15.59375 -1.28125 C 15 -0.425781 14.070312 0 12.8125 0 L 2.515625 0 C 2.398438 0 2.257812 -0.0390625 2.09375 -0.125 C 1.925781 -0.207031 1.84375 -0.425781 1.84375 -0.78125 L 1.84375 -2.609375 C 1.84375 -2.953125 1.925781 -3.164062 2.09375 -3.25 C 2.257812 -3.332031 2.398438 -3.375 2.515625 -3.375 L 12.265625 -3.375 C 12.460938 -3.375 12.601562 -3.40625 12.6875 -3.46875 C 12.769531 -3.539062 12.832031 -3.609375 12.875 -3.671875 C 13.007812 -3.898438 13.078125 -4.222656 13.078125 -4.640625 L 13.078125 -6.59375 C 13.078125 -7.15625 12.984375 -7.503906 12.796875 -7.640625 C 12.617188 -7.785156 12.445312 -7.859375 12.28125 -7.859375 L 5.4375 -7.859375 C 4.957031 -7.859375 4.46875 -7.914062 3.96875 -8.03125 C 3.476562 -8.15625 3.0625 -8.453125 2.71875 -8.921875 C 2.125 -9.765625 1.828125 -10.984375 1.828125 -12.578125 L 1.828125 -14.3125 C 1.828125 -15.65625 2.125 -16.738281 2.71875 -17.5625 C 3.3125 -18.394531 4.234375 -18.8125 5.484375 -18.8125 L 15.3125 -18.8125 C 15.40625 -18.8125 15.535156 -18.769531 15.703125 -18.6875 C 15.867188 -18.601562 15.953125 -18.382812 15.953125 -18.03125 L 15.953125 -16.203125 C 15.953125 -15.859375 15.867188 -15.644531 15.703125 -15.5625 C 15.535156 -15.476562 15.40625 -15.4375 15.3125 -15.4375 L 6.03125 -15.4375 C 5.832031 -15.4375 5.691406 -15.40625 5.609375 -15.34375 C 5.523438 -15.28125 5.457031 -15.210938 5.40625 -15.140625 C 5.289062 -14.890625 5.234375 -14.566406 5.234375 -14.171875 L 5.234375 -12.484375 C 5.234375 -11.921875 5.316406 -11.570312 5.484375 -11.4375 C 5.660156 -11.300781 5.832031 -11.234375 6 -11.234375 Z M 12.859375 -11.234375 "/></g></g></g><g fill="#000000" fill-opacity="1"><g transform="translate(169.340309, 259.279386)"><g><path d="M 20.84375 -3.375 C 20.945312 -3.375 21.078125 -3.328125 21.234375 -3.234375 C 21.398438 -3.148438 21.484375 -2.929688 21.484375 -2.578125 L 21.484375 -0.78125 C 21.484375 -0.425781 21.398438 -0.203125 21.234375 -0.109375 C 21.078125 -0.0234375 20.945312 0.015625 20.84375 0.015625 L 7.46875 0.015625 C 6.457031 0.015625 5.601562 -0.109375 4.90625 -0.359375 C 4.1875 -0.609375 3.59375 -1.035156 3.125 -1.640625 C 2.6875 -2.191406 2.359375 -2.9375 2.140625 -3.875 C 1.929688 -4.800781 1.828125 -5.890625 1.828125 -7.140625 L 1.828125 -11.671875 C 1.828125 -12.304688 1.851562 -12.894531 1.90625 -13.4375 C 1.957031 -13.976562 2.035156 -14.46875 2.140625 -14.90625 C 2.359375 -15.851562 2.6875 -16.597656 3.125 -17.140625 C 3.582031 -17.722656 4.171875 -18.148438 4.890625 -18.421875 C 5.617188 -18.679688 6.476562 -18.8125 7.46875 -18.8125 L 13.03125 -18.8125 C 14.019531 -18.8125 14.878906 -18.679688 15.609375 -18.421875 C 16.328125 -18.148438 16.921875 -17.722656 17.390625 -17.140625 C 17.847656 -16.546875 18.175781 -15.800781 18.375 -14.90625 C 18.5625 -14.019531 18.65625 -12.941406 18.65625 -11.671875 L 18.65625 -7.140625 C 18.65625 -5.867188 18.5625 -4.78125 18.375 -3.875 C 18.363281 -3.800781 18.34375 -3.71875 18.3125 -3.625 C 18.289062 -3.539062 18.265625 -3.457031 18.234375 -3.375 Z M 15.265625 -12.046875 C 15.265625 -12.390625 15.253906 -12.703125 15.234375 -12.984375 C 15.210938 -13.265625 15.1875 -13.519531 15.15625 -13.75 C 15.113281 -13.957031 15.0625 -14.148438 15 -14.328125 C 14.9375 -14.503906 14.859375 -14.648438 14.765625 -14.765625 C 14.617188 -14.984375 14.390625 -15.148438 14.078125 -15.265625 C 13.929688 -15.316406 13.757812 -15.359375 13.5625 -15.390625 C 13.375 -15.421875 13.160156 -15.4375 12.921875 -15.4375 L 7.578125 -15.4375 C 7.335938 -15.4375 7.117188 -15.421875 6.921875 -15.390625 C 6.734375 -15.359375 6.554688 -15.316406 6.390625 -15.265625 C 6.097656 -15.148438 5.878906 -14.984375 5.734375 -14.765625 C 5.535156 -14.503906 5.40625 -14.164062 5.34375 -13.75 C 5.289062 -13.519531 5.257812 -13.265625 5.25 -12.984375 C 5.238281 -12.703125 5.234375 -12.390625 5.234375 -12.046875 L 5.234375 -6.734375 C 5.234375 -6.398438 5.238281 -6.09375 5.25 -5.8125 C 5.257812 -5.53125 5.289062 -5.273438 5.34375 -5.046875 C 5.414062 -4.609375 5.546875 -4.273438 5.734375 -4.046875 C 5.878906 -3.796875 6.097656 -3.625 6.390625 -3.53125 C 6.691406 -3.425781 7.085938 -3.375 7.578125 -3.375 L 12.921875 -3.375 C 13.421875 -3.375 13.804688 -3.425781 14.078125 -3.53125 C 14.390625 -3.625 14.617188 -3.796875 14.765625 -4.046875 C 14.859375 -4.160156 14.9375 -4.304688 15 -4.484375 C 15.0625 -4.660156 15.113281 -4.847656 15.15625 -5.046875 C 15.1875 -5.273438 15.210938 -5.53125 15.234375 -5.8125 C 15.253906 -6.09375 15.265625 -6.398438 15.265625 -6.734375 Z M 15.265625 -12.046875 "/></g></g></g><g fill="#000000" fill-opacity="1"><g transform="translate(197.89558, 259.279386)"><g><path d="M 17.59375 -18.8125 C 17.707031 -18.8125 17.84375 -18.769531 18 -18.6875 C 18.15625 -18.601562 18.234375 -18.382812 18.234375 -18.03125 L 18.234375 -7.140625 C 18.234375 -6.503906 18.210938 -5.910156 18.171875 -5.359375 C 18.128906 -4.816406 18.050781 -4.320312 17.9375 -3.875 C 17.726562 -2.9375 17.40625 -2.191406 16.96875 -1.640625 C 16.519531 -1.066406 15.925781 -0.640625 15.1875 -0.359375 C 14.5 -0.117188 13.632812 0 12.59375 0 L 7.46875 0 C 6.425781 0 5.566406 -0.117188 4.890625 -0.359375 C 4.535156 -0.503906 4.207031 -0.679688 3.90625 -0.890625 C 3.601562 -1.097656 3.34375 -1.347656 3.125 -1.640625 C 2.65625 -2.222656 2.320312 -2.96875 2.125 -3.875 C 2.019531 -4.320312 1.941406 -4.816406 1.890625 -5.359375 C 1.847656 -5.910156 1.828125 -6.503906 1.828125 -7.140625 L 1.828125 -18.03125 C 1.828125 -18.382812 1.910156 -18.601562 2.078125 -18.6875 C 2.242188 -18.769531 2.378906 -18.8125 2.484375 -18.8125 L 4.5625 -18.8125 C 4.664062 -18.8125 4.796875 -18.769531 4.953125 -18.6875 C 5.117188 -18.601562 5.203125 -18.382812 5.203125 -18.03125 L 5.203125 -6.78125 C 5.203125 -6.445312 5.210938 -6.128906 5.234375 -5.828125 C 5.253906 -5.535156 5.28125 -5.28125 5.3125 -5.0625 C 5.40625 -4.65625 5.535156 -4.316406 5.703125 -4.046875 C 5.890625 -3.816406 6.117188 -3.644531 6.390625 -3.53125 C 6.546875 -3.488281 6.722656 -3.453125 6.921875 -3.421875 C 7.117188 -3.390625 7.335938 -3.375 7.578125 -3.375 L 12.515625 -3.375 C 12.753906 -3.375 12.972656 -3.390625 13.171875 -3.421875 C 13.367188 -3.453125 13.546875 -3.488281 13.703125 -3.53125 C 13.972656 -3.644531 14.195312 -3.816406 14.375 -4.046875 C 14.457031 -4.160156 14.53125 -4.304688 14.59375 -4.484375 C 14.664062 -4.660156 14.71875 -4.851562 14.75 -5.0625 C 14.78125 -5.28125 14.804688 -5.535156 14.828125 -5.828125 C 14.847656 -6.128906 14.859375 -6.445312 14.859375 -6.78125 L 14.859375 -18.03125 C 14.859375 -18.382812 14.9375 -18.601562 15.09375 -18.6875 C 15.257812 -18.769531 15.394531 -18.8125 15.5 -18.8125 Z M 17.59375 -18.8125 "/></g></g></g><g fill="#000000" fill-opacity="1"><g transform="translate(223.209773, 259.279386)"><g><path d="M 14.0625 -16.6875 L 20.484375 -0.875 C 20.566406 -0.65625 20.585938 -0.46875 20.546875 -0.3125 C 20.523438 -0.257812 20.476562 -0.191406 20.40625 -0.109375 C 20.34375 -0.0234375 20.222656 0.015625 20.046875 0.015625 L 17.59375 0.015625 C 17.28125 0.015625 17.0625 -0.148438 16.9375 -0.484375 L 11.28125 -14.609375 C 11.257812 -14.640625 11.25 -14.65625 11.25 -14.65625 L 11.15625 -14.65625 C 11.15625 -14.65625 11.148438 -14.648438 11.140625 -14.640625 C 11.140625 -14.640625 11.132812 -14.625 11.125 -14.59375 L 8.1875 -7.1875 L 11.03125 -7.1875 C 11.34375 -7.1875 11.5625 -7.035156 11.6875 -6.734375 L 12.515625 -4.703125 C 12.585938 -4.441406 12.554688 -4.222656 12.421875 -4.046875 C 12.296875 -3.828125 12.097656 -3.71875 11.828125 -3.71875 L 6.828125 -3.71875 L 5.53125 -0.453125 C 5.40625 -0.140625 5.191406 0.015625 4.890625 0.015625 L 2.375 0.015625 C 2.1875 0.015625 2.054688 -0.0234375 1.984375 -0.109375 C 1.921875 -0.191406 1.882812 -0.257812 1.875 -0.3125 C 1.820312 -0.457031 1.835938 -0.644531 1.921875 -0.875 L 8.28125 -16.6875 C 8.59375 -17.488281 8.929688 -18.046875 9.296875 -18.359375 C 9.335938 -18.390625 9.390625 -18.425781 9.453125 -18.46875 C 9.515625 -18.507812 9.578125 -18.546875 9.640625 -18.578125 C 10.085938 -18.898438 10.609375 -19.0625 11.203125 -19.0625 C 11.828125 -19.0625 12.390625 -18.867188 12.890625 -18.484375 C 13.398438 -18.109375 13.742188 -17.625 13.921875 -17.03125 C 13.953125 -16.988281 13.976562 -16.9375 14 -16.875 C 14.03125 -16.8125 14.050781 -16.75 14.0625 -16.6875 Z M 14.0625 -16.6875 "/></g></g></g><g fill="#000000" fill-opacity="1"><g transform="translate(250.87489, 259.279386)"><g><path d="M 17.390625 -13.359375 L 17.390625 -13.21875 C 17.390625 -13.226562 17.390625 -13.238281 17.390625 -13.25 C 17.390625 -13.257812 17.390625 -13.269531 17.390625 -13.28125 C 17.390625 -13.300781 17.390625 -13.3125 17.390625 -13.3125 C 17.390625 -13.320312 17.390625 -13.335938 17.390625 -13.359375 Z M 17.828125 -0.984375 C 17.921875 -0.859375 17.953125 -0.675781 17.921875 -0.4375 C 17.878906 -0.132812 17.703125 0.015625 17.390625 0.015625 L 14.890625 0.015625 C 14.691406 0.015625 14.53125 -0.0234375 14.40625 -0.109375 C 14.363281 -0.140625 14.320312 -0.1875 14.28125 -0.25 C 14.238281 -0.3125 14.195312 -0.375 14.15625 -0.4375 L 10.015625 -7.765625 L 5.203125 -7.765625 L 5.203125 -0.78125 C 5.203125 -0.425781 5.117188 -0.203125 4.953125 -0.109375 C 4.796875 -0.0234375 4.664062 0.015625 4.5625 0.015625 L 2.484375 0.015625 C 2.378906 0.015625 2.242188 -0.0234375 2.078125 -0.109375 C 1.910156 -0.203125 1.828125 -0.425781 1.828125 -0.78125 L 1.828125 -10.359375 C 1.828125 -10.710938 1.910156 -10.929688 2.078125 -11.015625 C 2.242188 -11.097656 2.378906 -11.140625 2.484375 -11.140625 L 12.421875 -11.140625 C 12.992188 -11.140625 13.394531 -11.304688 13.625 -11.640625 C 13.875 -11.972656 14 -12.519531 14 -13.28125 C 14 -14.039062 13.875 -14.585938 13.625 -14.921875 C 13.394531 -15.265625 12.992188 -15.4375 12.421875 -15.4375 L 2.484375 -15.4375 C 2.378906 -15.4375 2.242188 -15.476562 2.078125 -15.5625 C 1.910156 -15.644531 1.828125 -15.859375 1.828125 -16.203125 L 1.828125 -18.015625 C 1.828125 -18.378906 1.910156 -18.601562 2.078125 -18.6875 C 2.242188 -18.769531 2.378906 -18.8125 2.484375 -18.8125 L 13.015625 -18.8125 C 14.578125 -18.8125 15.703125 -18.320312 16.390625 -17.34375 C 17.046875 -16.40625 17.378906 -15.050781 17.390625 -13.28125 C 17.378906 -11.519531 17.046875 -10.164062 16.390625 -9.21875 C 15.804688 -8.425781 14.953125 -7.960938 13.828125 -7.828125 Z M 17.828125 -0.984375 "/></g></g></g><g fill="#000000" fill-opacity="1"><g transform="translate(275.892368, 259.279386)"><g><path d="M 15.546875 -4.09375 C 15.648438 -4.09375 15.785156 -4.046875 15.953125 -3.953125 C 16.117188 -3.867188 16.203125 -3.65625 16.203125 -3.3125 L 16.203125 -0.796875 C 16.203125 -0.453125 16.117188 -0.234375 15.953125 -0.140625 C 15.785156 -0.0546875 15.648438 -0.015625 15.546875 -0.015625 L 7.4375 -0.015625 C 6.9375 -0.015625 6.472656 -0.046875 6.046875 -0.109375 C 5.617188 -0.171875 5.234375 -0.269531 4.890625 -0.40625 C 4.140625 -0.664062 3.546875 -1.085938 3.109375 -1.671875 C 2.648438 -2.265625 2.320312 -3.007812 2.125 -3.90625 C 2.050781 -4.28125 1.984375 -4.695312 1.921875 -5.15625 C 1.867188 -5.613281 1.835938 -6.109375 1.828125 -6.640625 L 1.828125 -6.75 L 1.875 -9.640625 C 1.914062 -9.804688 2 -9.992188 2.125 -10.203125 C 2.457031 -10.796875 2.972656 -11.113281 3.671875 -11.15625 L 15.453125 -11.1875 C 15.546875 -11.1875 15.675781 -11.144531 15.84375 -11.0625 C 16.007812 -10.976562 16.09375 -10.757812 16.09375 -10.40625 L 16.09375 -8.609375 C 16.09375 -8.253906 16.007812 -8.03125 15.84375 -7.9375 C 15.675781 -7.851562 15.546875 -7.8125 15.453125 -7.8125 L 5.25 -7.8125 C 5.25 -7.8125 5.242188 -7.726562 5.234375 -7.5625 C 5.234375 -7.394531 5.226562 -7.203125 5.21875 -6.984375 C 5.207031 -6.773438 5.203125 -6.582031 5.203125 -6.40625 C 5.203125 -6.238281 5.203125 -6.15625 5.203125 -6.15625 C 5.222656 -6.101562 5.234375 -6.039062 5.234375 -5.96875 C 5.234375 -5.894531 5.238281 -5.832031 5.25 -5.78125 C 5.3125 -5.351562 5.441406 -5.007812 5.640625 -4.75 C 5.816406 -4.519531 6.046875 -4.351562 6.328125 -4.25 C 6.492188 -4.195312 6.671875 -4.15625 6.859375 -4.125 C 7.046875 -4.101562 7.265625 -4.09375 7.515625 -4.09375 Z M 3.828125 -10.984375 Z M 15.5625 -18.859375 C 15.65625 -18.859375 15.785156 -18.8125 15.953125 -18.71875 C 16.117188 -18.625 16.203125 -18.40625 16.203125 -18.0625 L 16.203125 -16.25 C 16.203125 -15.90625 16.117188 -15.6875 15.953125 -15.59375 C 15.785156 -15.5 15.65625 -15.453125 15.5625 -15.453125 L 2.4375 -15.484375 C 2.351562 -15.484375 2.226562 -15.523438 2.0625 -15.609375 C 1.90625 -15.691406 1.828125 -15.90625 1.828125 -16.25 L 1.828125 -18.03125 C 1.828125 -18.394531 1.90625 -18.625 2.0625 -18.71875 C 2.226562 -18.8125 2.351562 -18.859375 2.4375 -18.859375 Z M 15.5625 -18.859375 "/></g></g></g><g fill="#000000" fill-opacity="1"><g transform="translate(299.175183, 259.279386)"><g><path d="M 12.859375 -11.234375 C 14.046875 -11.234375 14.945312 -10.8125 15.5625 -9.96875 C 16.15625 -9.15625 16.453125 -8 16.453125 -6.5 L 16.453125 -4.5 C 16.453125 -3.1875 16.164062 -2.113281 15.59375 -1.28125 C 15 -0.425781 14.070312 0 12.8125 0 L 2.515625 0 C 2.398438 0 2.257812 -0.0390625 2.09375 -0.125 C 1.925781 -0.207031 1.84375 -0.425781 1.84375 -0.78125 L 1.84375 -2.609375 C 1.84375 -2.953125 1.925781 -3.164062 2.09375 -3.25 C 2.257812 -3.332031 2.398438 -3.375 2.515625 -3.375 L 12.265625 -3.375 C 12.460938 -3.375 12.601562 -3.40625 12.6875 -3.46875 C 12.769531 -3.539062 12.832031 -3.609375 12.875 -3.671875 C 13.007812 -3.898438 13.078125 -4.222656 13.078125 -4.640625 L 13.078125 -6.59375 C 13.078125 -7.15625 12.984375 -7.503906 12.796875 -7.640625 C 12.617188 -7.785156 12.445312 -7.859375 12.28125 -7.859375 L 5.4375 -7.859375 C 4.957031 -7.859375 4.46875 -7.914062 3.96875 -8.03125 C 3.476562 -8.15625 3.0625 -8.453125 2.71875 -8.921875 C 2.125 -9.765625 1.828125 -10.984375 1.828125 -12.578125 L 1.828125 -14.3125 C 1.828125 -15.65625 2.125 -16.738281 2.71875 -17.5625 C 3.3125 -18.394531 4.234375 -18.8125 5.484375 -18.8125 L 15.3125 -18.8125 C 15.40625 -18.8125 15.535156 -18.769531 15.703125 -18.6875 C 15.867188 -18.601562 15.953125 -18.382812 15.953125 -18.03125 L 15.953125 -16.203125 C 15.953125 -15.859375 15.867188 -15.644531 15.703125 -15.5625 C 15.535156 -15.476562 15.40625 -15.4375 15.3125 -15.4375 L 6.03125 -15.4375 C 5.832031 -15.4375 5.691406 -15.40625 5.609375 -15.34375 C 5.523438 -15.28125 5.457031 -15.210938 5.40625 -15.140625 C 5.289062 -14.890625 5.234375 -14.566406 5.234375 -14.171875 L 5.234375 -12.484375 C 5.234375 -11.921875 5.316406 -11.570312 5.484375 -11.4375 C 5.660156 -11.300781 5.832031 -11.234375 6 -11.234375 Z M 12.859375 -11.234375 "/></g></g></g></svg>